<?xml version="1.0" standalone="no"?>
<!DOCTYPE svg PUBLIC "-//W3C//DTD SVG 20010904//EN"
 "http://www.w3.org/TR/2001/REC-SVG-20010904/DTD/svg10.dtd">
<svg version="1.0" xmlns="http://www.w3.org/2000/svg"
 width="300.000000pt" height="109.000000pt" viewBox="0 0 300.000000 109.000000"
 preserveAspectRatio="xMidYMid meet">
<metadata>
Created by potrace 1.10, written by Peter Selinger 2001-2011
</metadata>
<g transform="translate(0.000000,109.000000) scale(0.100000,-0.100000)"
fill="#000000" stroke="none">
<path d="M2285 1079 c-4 -6 4 -22 16 -36 l24 -25 -55 7 c-30 4 -92 18 -138 31
-45 13 -101 24 -125 24 l-42 -1 40 -34 c22 -18 37 -37 33 -40 -6 -6 -64 4
-125 21 -30 8 -32 -20 -3 -38 30 -19 25 -26 -32 -43 -74 -22 -224 -19 -338 5
-57 13 -134 21 -199 22 -117 2 -131 -3 -279 -94 -150 -92 -269 -137 -287 -108
-3 5 -8 33 -11 62 -11 105 -56 133 -199 125 -49 -3 -130 -15 -180 -27 -49 -12
-123 -22 -163 -23 -62 0 -81 4 -133 31 -66 34 -89 39 -89 20 1 -40 22 -94 47
-120 38 -41 119 -78 170 -78 49 0 257 35 296 49 38 15 53 6 76 -44 32 -68 83
-93 200 -97 l95 -4 49 -80 c66 -107 81 -121 223 -209 94 -57 134 -89 166 -130
46 -57 65 -64 108 -40 34 19 75 19 132 -2 l47 -17 -44 -47 c-25 -27 -45 -54
-45 -62 0 -28 27 -49 71 -54 38 -4 47 -1 68 21 14 15 35 26 51 26 14 0 31 5
37 11 8 8 19 5 42 -12 27 -20 34 -21 58 -10 15 7 29 9 30 4 18 -49 28 -57 78
-58 58 -1 85 19 85 63 0 35 -37 72 -71 72 -13 0 -33 7 -43 15 -16 12 -17 17
-6 30 7 8 22 15 35 15 12 0 30 9 40 20 16 18 31 20 155 20 129 0 138 1 158 23
33 34 37 75 13 129 -29 69 -37 157 -17 196 21 41 131 129 178 144 36 11 39 10
83 -31 25 -23 75 -56 111 -73 42 -20 77 -46 97 -71 57 -71 76 -87 101 -87 43
0 75 21 102 67 l25 44 -54 82 c-30 45 -74 117 -98 161 -24 43 -63 95 -86 116
-23 20 -51 57 -62 82 -23 54 -34 63 -51 43 -9 -11 -11 -34 -7 -73 l6 -57 -20
27 c-11 14 -56 48 -100 73 -74 44 -81 46 -93 30 -12 -17 -16 -17 -74 4 -72 25
-69 24 -77 10z m128 -59 c12 0 28 5 34 11 11 11 119 -46 165 -89 33 -30 56
-24 65 19 4 23 8 27 14 17 5 -9 32 -40 62 -70 29 -31 70 -89 92 -129 21 -41
58 -103 82 -138 l44 -63 -26 -34 c-28 -37 -64 -51 -90 -37 -9 5 -33 32 -53 59
-28 36 -57 59 -113 89 -42 22 -95 57 -118 78 -43 39 -62 44 -107 27 -46 -18
-154 -112 -181 -158 -22 -37 -25 -51 -19 -97 3 -30 15 -77 26 -105 25 -64 25
-85 0 -110 -18 -18 -33 -20 -146 -20 -105 0 -131 -3 -162 -20 -20 -10 -45 -21
-54 -24 -9 -3 -24 -17 -34 -31 -16 -25 -16 -27 11 -55 16 -17 38 -30 50 -30
33 0 57 -23 53 -51 -2 -20 -9 -24 -45 -27 -38 -3 -43 0 -58 28 -14 27 -21 30
-53 29 -22 -2 -48 5 -64 15 -21 13 -31 15 -47 7 -11 -6 -29 -11 -40 -11 -11 0
-33 -12 -50 -26 -24 -20 -37 -24 -61 -19 -16 4 -32 10 -35 15 -3 5 13 29 35
55 22 25 40 50 40 54 0 12 -42 46 -73 59 -38 16 -90 15 -135 -3 l-36 -16 -56
59 c-35 37 -97 85 -170 130 -130 80 -140 88 -205 192 -27 41 -55 80 -63 86 -9
6 -53 12 -100 13 -115 3 -139 14 -182 88 -33 55 -56 65 -120 48 -30 -8 -106
-22 -169 -31 -105 -15 -118 -15 -165 -1 -55 18 -108 64 -125 109 l-10 28 56
-32 c49 -28 66 -32 132 -32 42 -1 90 2 106 6 195 42 245 49 302 45 89 -7 109
-22 118 -94 8 -71 34 -103 82 -103 37 0 144 51 280 133 49 30 105 60 125 66
55 18 199 11 334 -15 139 -27 193 -29 289 -9 53 11 76 22 95 42 20 22 32 27
58 25 41 -4 65 14 59 45 -5 27 5 28 59 9 22 -7 72 -19 111 -26 67 -12 74 -12
93 5 12 10 18 25 16 32 -4 10 1 10 24 -2 16 -8 40 -15 53 -15z"/>
<path d="M1467 542 c-22 -24 -21 -39 3 -106 31 -82 121 -156 190 -156 39 0 77
-19 114 -59 17 -17 35 -31 42 -31 17 0 74 49 74 63 0 17 -79 97 -96 97 -7 0
-16 5 -20 11 -11 18 45 2 74 -22 39 -30 71 -25 88 16 19 47 18 89 -4 108 -15
14 -41 17 -134 17 -111 0 -119 1 -189 35 -100 46 -121 50 -142 27z m138 -59
c70 -33 76 -34 194 -34 l121 1 0 -38 c0 -21 -6 -46 -13 -56 -13 -17 -15 -16
-44 12 -23 23 -40 31 -74 33 -46 3 -69 -5 -69 -22 0 -15 51 -59 68 -59 8 0 30
-16 49 -35 l33 -34 -29 -15 c-28 -15 -29 -14 -75 29 -40 39 -52 45 -90 45 -33
0 -56 8 -92 33 -59 39 -78 67 -98 135 l-15 53 31 -6 c16 -4 63 -23 103 -42z"/>
<path d="M2112 417 c-46 -48 -38 -87 18 -87 59 0 87 51 54 98 -21 30 -34 28
-72 -11z m68 -38 c0 -8 -70 -22 -77 -15 -3 3 7 17 22 32 27 26 28 27 41 9 8
-10 14 -22 14 -26z"/>
</g>
</svg>
